<?xml version="1.0" encoding="UTF-8"?>
<!DOCTYPE svg PUBLIC "-//W3C//DTD SVG 1.1//EN" "http://www.w3.org/Graphics/SVG/1.1/DTD/svg11.dtd">
<svg xmlns="http://www.w3.org/2000/svg" version="1.1" width="50px" height="55px" style="shape-rendering:geometricPrecision; text-rendering:geometricPrecision; image-rendering:optimizeQuality; fill-rule:evenodd; clip-rule:evenodd" xmlns:xlink="http://www.w3.org/1999/xlink">
<g><path style="opacity:0.406" fill="#141717" d="M 36.5,5.5 C 32.1667,5.5 27.8333,5.5 23.5,5.5C 19.1667,5.5 14.8333,5.5 10.5,5.5C 10.1667,5.5 9.83333,5.5 9.5,5.5C 10.2625,4.73209 11.2625,4.23209 12.5,4C 19.8333,3.33333 27.1667,3.33333 34.5,4C 35.4158,4.27842 36.0825,4.77842 36.5,5.5 Z"/></g>
<g><path style="opacity:1" fill="#99bebd" d="M 10.5,5.5 C 14.8333,5.5 19.1667,5.5 23.5,5.5C 24.0998,6.89992 25.0998,7.89992 26.5,8.5C 21.4932,8.24908 16.4932,7.91574 11.5,7.5C 10.6618,7.15829 10.3284,6.49162 10.5,5.5 Z"/></g>
<g><path style="opacity:1" fill="#abd0cf" d="M 23.5,5.5 C 27.8333,5.5 32.1667,5.5 36.5,5.5C 36.5,5.83333 36.5,6.16667 36.5,6.5C 33.5049,6.29379 30.8383,6.96046 28.5,8.5C 27.8333,8.5 27.1667,8.5 26.5,8.5C 25.0998,7.89992 24.0998,6.89992 23.5,5.5 Z"/></g>
<g><path style="opacity:1" fill="#dff4f3" d="M 36.5,6.5 C 37.8333,6.5 38.5,7.16667 38.5,8.5C 35.1667,8.5 31.8333,8.5 28.5,8.5C 30.8383,6.96046 33.5049,6.29379 36.5,6.5 Z"/></g>
<g><path style="opacity:0.98" fill="#1e231e" d="M 36.5,6.5 C 36.5,6.16667 36.5,5.83333 36.5,5.5C 37.552,5.35055 38.552,5.51722 39.5,6C 42.0159,8.68325 44.6826,11.1833 47.5,13.5C 48.782,14.9584 48.782,16.2918 47.5,17.5C 47.6716,16.5084 47.3382,15.8417 46.5,15.5C 44.8729,13.3702 43.0396,11.3702 41,9.5C 40.6174,10.056 40.1174,10.3893 39.5,10.5C 39.6716,9.50838 39.3382,8.84171 38.5,8.5C 38.5,7.16667 37.8333,6.5 36.5,6.5 Z"/></g>
<g><path style="opacity:1" fill="#393c3c" d="M 11.5,8.5 C 11.5,8.16667 11.5,7.83333 11.5,7.5C 16.4932,7.91574 21.4932,8.24908 26.5,8.5C 27.1667,8.5 27.8333,8.5 28.5,8.5C 31.8333,8.5 35.1667,8.5 38.5,8.5C 39.3382,8.84171 39.6716,9.50838 39.5,10.5C 39.5,11.1667 39.5,11.8333 39.5,12.5C 38.1001,13.0998 37.1001,14.0998 36.5,15.5C 36.3285,13.5082 36.9951,11.8415 38.5,10.5C 37.1667,10.1667 35.8333,9.83333 34.5,9.5C 32.6672,9.58544 31.3339,10.2521 30.5,11.5C 29.8826,11.3893 29.3826,11.056 29,10.5C 27.7225,12.7472 26.2225,14.7472 24.5,16.5C 24.5569,15.391 24.8902,14.391 25.5,13.5C 25.8333,12.8333 26.1667,12.1667 26.5,11.5C 27.0431,11.44 27.3764,11.1067 27.5,10.5C 24.5541,9.34524 21.5541,9.17858 18.5,10C 20.4944,12.1575 21.8277,14.6575 22.5,17.5C 20.8518,15.5707 19.1851,13.5707 17.5,11.5C 16.8933,11.6236 16.56,11.9569 16.5,12.5C 15.8333,12.5 15.1667,12.5 14.5,12.5C 15.2299,11.2876 16.2299,10.2876 17.5,9.5C 15.604,8.53443 13.604,8.2011 11.5,8.5 Z"/></g>
<g><path style="opacity:1" fill="#325463" d="M 9.5,5.5 C 9.83333,5.5 10.1667,5.5 10.5,5.5C 10.3284,6.49162 10.6618,7.15829 11.5,7.5C 11.5,7.83333 11.5,8.16667 11.5,8.5C 10.5386,10.2646 10.2053,12.2646 10.5,14.5C 10.5,15.1667 10.1667,15.5 9.5,15.5C 9.59047,12.8478 8.92381,10.5145 7.5,8.5C 7.5,8.16667 7.5,7.83333 7.5,7.5C 7.83333,6.5 8.5,5.83333 9.5,5.5 Z"/></g>
<g><path style="opacity:1" fill="#4190b4" d="M 11.5,8.5 C 13.604,8.2011 15.604,8.53443 17.5,9.5C 16.2299,10.2876 15.2299,11.2876 14.5,12.5C 14.0269,13.9063 13.0269,14.573 11.5,14.5C 11.1667,14.5 10.8333,14.5 10.5,14.5C 10.2053,12.2646 10.5386,10.2646 11.5,8.5 Z"/></g>
<g><path style="opacity:1" fill="#b9ce43" d="M 26.5,11.5 C 26.5654,11.0618 26.3988,10.7284 26,10.5C 23.5097,11.9467 23.3431,12.9467 25.5,13.5C 24.8902,14.391 24.5569,15.391 24.5,16.5C 23.8333,16.8333 23.1667,17.1667 22.5,17.5C 21.8277,14.6575 20.4944,12.1575 18.5,10C 21.5541,9.17858 24.5541,9.34524 27.5,10.5C 27.3764,11.1067 27.0431,11.44 26.5,11.5 Z"/></g>
<g><path style="opacity:1" fill="#af70a8" d="M 36.5,15.5 C 34.2048,14.5254 32.2048,13.1921 30.5,11.5C 31.3339,10.2521 32.6672,9.58544 34.5,9.5C 35.8333,9.83333 37.1667,10.1667 38.5,10.5C 36.9951,11.8415 36.3285,13.5082 36.5,15.5 Z"/></g>
<g><path style="opacity:1" fill="#fffee8" d="M 26.5,11.5 C 26.1667,12.1667 25.8333,12.8333 25.5,13.5C 23.3431,12.9467 23.5097,11.9467 26,10.5C 26.3988,10.7284 26.5654,11.0618 26.5,11.5 Z"/></g>
<g><path style="opacity:1" fill="#402f3e" d="M 30.5,11.5 C 32.2048,13.1921 34.2048,14.5254 36.5,15.5C 36.3691,16.3764 36.7025,17.0431 37.5,17.5C 39.6568,16.9495 41.6568,16.2829 43.5,15.5C 44.5,15.5 45.5,15.5 46.5,15.5C 47.3382,15.8417 47.6716,16.5084 47.5,17.5C 47.1667,17.5 46.8333,17.5 46.5,17.5C 46.44,16.9569 46.1067,16.6236 45.5,16.5C 43.3432,17.0505 41.3432,17.7171 39.5,18.5C 38.1667,18.5 36.8333,18.5 35.5,18.5C 35.5,17.8333 35.1667,17.5 34.5,17.5C 32.7745,15.7721 31.4411,13.7721 30.5,11.5 Z"/></g>
<g><path style="opacity:1" fill="#d9ebd1" d="M 46.5,15.5 C 45.5,15.5 44.5,15.5 43.5,15.5C 41.8595,14.853 40.5261,13.853 39.5,12.5C 39.5,11.8333 39.5,11.1667 39.5,10.5C 40.1174,10.3893 40.6174,10.056 41,9.5C 43.0396,11.3702 44.8729,13.3702 46.5,15.5 Z"/></g>
<g><path style="opacity:1" fill="#b9d8d5" d="M 7.5,8.5 C 8.92381,10.5145 9.59047,12.8478 9.5,15.5C 9.16667,15.5 8.83333,15.5 8.5,15.5C 6.95808,14.8365 5.29141,14.1698 3.5,13.5C 4.85689,11.8144 6.19022,10.1477 7.5,8.5 Z"/></g>
<g><path style="opacity:1" fill="#36383b" d="M 7.5,7.5 C 7.5,7.83333 7.5,8.16667 7.5,8.5C 6.19022,10.1477 4.85689,11.8144 3.5,13.5C 5.29141,14.1698 6.95808,14.8365 8.5,15.5C 7.5,15.5 6.5,15.5 5.5,15.5C 4.76109,15.369 4.09442,15.5357 3.5,16C 4.58218,17.3297 5.24885,18.8297 5.5,20.5C -0.239131,15.342 0.427536,11.0086 7.5,7.5 Z"/></g>
<g><path style="opacity:1" fill="#d3e9cc" d="M 22.5,17.5 C 22.1583,18.3382 21.4916,18.6716 20.5,18.5C 19.9522,16.4677 18.6188,15.4677 16.5,15.5C 16.5,14.5 16.5,13.5 16.5,12.5C 16.56,11.9569 16.8933,11.6236 17.5,11.5C 19.1851,13.5707 20.8518,15.5707 22.5,17.5 Z"/></g>
<g><path style="opacity:1" fill="#91ac8a" d="M 39.5,12.5 C 40.5261,13.853 41.8595,14.853 43.5,15.5C 41.6568,16.2829 39.6568,16.9495 37.5,17.5C 36.7025,17.0431 36.3691,16.3764 36.5,15.5C 37.1001,14.0998 38.1001,13.0998 39.5,12.5 Z"/></g>
<g><path style="opacity:1" fill="#cd9ec3" d="M 5.5,15.5 C 7.16667,16.1667 8.83333,16.8333 10.5,17.5C 9.29049,17.9321 8.29049,18.5987 7.5,19.5C 7.5,20.1667 7.5,20.8333 7.5,21.5C 6.83333,21.1667 6.16667,20.8333 5.5,20.5C 5.24885,18.8297 4.58218,17.3297 3.5,16C 4.09442,15.5357 4.76109,15.369 5.5,15.5 Z"/></g>
<g><path style="opacity:1" fill="#93ae8a" d="M 14.5,12.5 C 15.1667,12.5 15.8333,12.5 16.5,12.5C 16.5,13.5 16.5,14.5 16.5,15.5C 18.6188,15.4677 19.9522,16.4677 20.5,18.5C 20.1667,18.5 19.8333,18.5 19.5,18.5C 17.8828,17.962 16.2161,17.6287 14.5,17.5C 13.0998,16.8999 12.0998,15.8999 11.5,14.5C 13.0269,14.573 14.0269,13.9063 14.5,12.5 Z"/></g>
<g><path style="opacity:1" fill="#b3d7d5" d="M 30.5,11.5 C 31.4411,13.7721 32.7745,15.7721 34.5,17.5C 32.1516,17.6695 29.8183,18.0029 27.5,18.5C 25.9704,18.3601 24.9704,17.6935 24.5,16.5C 26.2225,14.7472 27.7225,12.7472 29,10.5C 29.3826,11.056 29.8826,11.3893 30.5,11.5 Z"/></g>
<g><path style="opacity:1" fill="#514951" d="M 24.5,16.5 C 24.9704,17.6935 25.9704,18.3601 27.5,18.5C 29.8183,18.0029 32.1516,17.6695 34.5,17.5C 35.1667,17.5 35.5,17.8333 35.5,18.5C 34.5084,18.3284 33.8417,18.6618 33.5,19.5C 32.8333,19.5 32.1667,19.5 31.5,19.5C 28.9407,19.1984 26.6074,19.5318 24.5,20.5C 24.5,23.1667 24.5,25.8333 24.5,28.5C 23.8333,25.8333 23.1667,23.1667 22.5,20.5C 21.791,19.596 20.791,19.2627 19.5,19.5C 19.5,19.1667 19.5,18.8333 19.5,18.5C 19.8333,18.5 20.1667,18.5 20.5,18.5C 21.4916,18.6716 22.1583,18.3382 22.5,17.5C 23.1667,17.1667 23.8333,16.8333 24.5,16.5 Z"/></g>
<g><path style="opacity:1" fill="#7d4c79" d="M 14.5,17.5 C 16.2161,17.6287 17.8828,17.962 19.5,18.5C 19.5,18.8333 19.5,19.1667 19.5,19.5C 17.5648,20.1495 15.5648,20.4828 13.5,20.5C 12.1148,19.0527 12.4482,18.0527 14.5,17.5 Z"/></g>
<g><path style="opacity:1" fill="#bd79b5" d="M 33.5,19.5 C 33.8417,18.6618 34.5084,18.3284 35.5,18.5C 36.8333,18.5 38.1667,18.5 39.5,18.5C 40.2959,21.6187 39.2959,24.2854 36.5,26.5C 35.3775,24.4816 35.3775,22.4816 36.5,20.5C 36.0302,19.537 35.3635,19.537 34.5,20.5C 34.5,19.8333 34.1667,19.5 33.5,19.5 Z"/></g>
<g><path style="opacity:1" fill="#c092b5" d="M 24.5,20.5 C 26.6074,19.5318 28.9407,19.1984 31.5,19.5C 31.9175,20.2216 32.5842,20.7216 33.5,21C 31.8659,21.4935 30.1992,21.6602 28.5,21.5C 27.2502,21.5774 26.4169,22.244 26,23.5C 25.7679,22.2625 25.2679,21.2625 24.5,20.5 Z"/></g>
<g><path style="opacity:1" fill="#bf78b8" d="M 19.5,19.5 C 20.791,19.2627 21.791,19.596 22.5,20.5C 22.5,21.1667 22.5,21.8333 22.5,22.5C 21.8485,21.9094 21.1818,21.2427 20.5,20.5C 19.8933,20.6236 19.56,20.9569 19.5,21.5C 18.391,21.5569 17.391,21.8902 16.5,22.5C 15.8333,22.8333 15.1667,23.1667 14.5,23.5C 13.8902,22.609 13.5569,21.609 13.5,20.5C 15.5648,20.4828 17.5648,20.1495 19.5,19.5 Z"/></g>
<g><path style="opacity:1" fill="#f7eaf6" d="M 22.5,22.5 C 22.5,23.8333 22.5,25.1667 22.5,26.5C 20.7769,25.3947 19.7769,23.7281 19.5,21.5C 19.56,20.9569 19.8933,20.6236 20.5,20.5C 21.1818,21.2427 21.8485,21.9094 22.5,22.5 Z"/></g>
<g><path style="opacity:1" fill="#dfacd4" d="M 31.5,19.5 C 32.1667,19.5 32.8333,19.5 33.5,19.5C 34.1667,19.5 34.5,19.8333 34.5,20.5C 34.6716,21.4916 34.3382,22.1583 33.5,22.5C 31.5544,23.0347 30.5544,24.368 30.5,26.5C 29.6908,24.9724 29.0241,23.3057 28.5,21.5C 30.1992,21.6602 31.8659,21.4935 33.5,21C 32.5842,20.7216 31.9175,20.2216 31.5,19.5 Z"/></g>
<g><path style="opacity:1" fill="#bc76b4" d="M 46.5,17.5 C 45.4884,18.8717 44.4884,20.205 43.5,21.5C 43.6495,20.448 43.4828,19.448 43,18.5C 41.8333,20.8333 40.6667,23.1667 39.5,25.5C 39.6236,26.1067 39.9569,26.44 40.5,26.5C 39.5592,28.0495 38.8925,29.7162 38.5,31.5C 37.2954,33.1376 35.9621,33.4709 34.5,32.5C 35.1667,30.5 35.8333,28.5 36.5,26.5C 39.2959,24.2854 40.2959,21.6187 39.5,18.5C 41.3432,17.7171 43.3432,17.0505 45.5,16.5C 46.1067,16.6236 46.44,16.9569 46.5,17.5 Z"/></g>
<g><path style="opacity:1" fill="#f3e8f2" d="M 43.5,21.5 C 42.7368,23.3684 41.7368,25.0351 40.5,26.5C 39.9569,26.44 39.6236,26.1067 39.5,25.5C 40.6667,23.1667 41.8333,20.8333 43,18.5C 43.4828,19.448 43.6495,20.448 43.5,21.5 Z"/></g>
<g><path style="opacity:1" fill="#bf94b6" d="M 7.5,19.5 C 10.5589,23.228 13.2256,27.228 15.5,31.5C 15.5,32.8333 15.5,34.1667 15.5,35.5C 15.1667,35.5 14.8333,35.5 14.5,35.5C 14.2503,33.326 13.2503,31.6594 11.5,30.5C 10.1667,27.5 8.83333,24.5 7.5,21.5C 7.5,20.8333 7.5,20.1667 7.5,19.5 Z"/></g>
<g><path style="opacity:1" fill="#deabd3" d="M 24.5,20.5 C 25.2679,21.2625 25.7679,22.2625 26,23.5C 26.4169,22.244 27.2502,21.5774 28.5,21.5C 29.0241,23.3057 29.6908,24.9724 30.5,26.5C 30.6716,27.4916 30.3382,28.1583 29.5,28.5C 29.19,27.2617 28.69,27.2617 28,28.5C 27.7679,27.2625 27.2679,26.2625 26.5,25.5C 25.8333,26.8333 25.1667,28.1667 24.5,29.5C 24.5,29.1667 24.5,28.8333 24.5,28.5C 24.5,25.8333 24.5,23.1667 24.5,20.5 Z"/></g>
<g><path style="opacity:1" fill="#fbf0f9" d="M 33.5,22.5 C 33.3713,24.2161 33.038,25.8828 32.5,27.5C 31.596,28.209 31.2627,29.209 31.5,30.5C 30.1667,30.5 29.5,29.8333 29.5,28.5C 30.3382,28.1583 30.6716,27.4916 30.5,26.5C 30.5544,24.368 31.5544,23.0347 33.5,22.5 Z"/></g>
<g><path style="opacity:1" fill="#473444" d="M 10.5,14.5 C 10.8333,14.5 11.1667,14.5 11.5,14.5C 12.0998,15.8999 13.0998,16.8999 14.5,17.5C 12.4482,18.0527 12.1148,19.0527 13.5,20.5C 13.5569,21.609 13.8902,22.609 14.5,23.5C 17.451,30.4002 20.1176,37.4002 22.5,44.5C 22.1667,44.5 21.8333,44.5 21.5,44.5C 19.8701,39.9194 17.8701,35.5861 15.5,31.5C 14.231,26.6932 12.5644,22.0265 10.5,17.5C 8.83333,16.8333 7.16667,16.1667 5.5,15.5C 6.5,15.5 7.5,15.5 8.5,15.5C 8.83333,15.5 9.16667,15.5 9.5,15.5C 10.1667,15.5 10.5,15.1667 10.5,14.5 Z"/></g>
<g><path style="opacity:0.559" fill="#130b12" d="M 46.5,17.5 C 46.8333,17.5 47.1667,17.5 47.5,17.5C 44.9957,22.5146 41.9957,27.1813 38.5,31.5C 38.8925,29.7162 39.5592,28.0495 40.5,26.5C 41.7368,25.0351 42.7368,23.3684 43.5,21.5C 44.4884,20.205 45.4884,18.8717 46.5,17.5 Z"/></g>
<g><path style="opacity:0.278" fill="#131012" d="M 5.5,20.5 C 6.16667,20.8333 6.83333,21.1667 7.5,21.5C 8.83333,24.5 10.1667,27.5 11.5,30.5C 8.4977,27.8388 6.4977,24.5055 5.5,20.5 Z"/></g>
<g><path style="opacity:1" fill="#553851" d="M 36.5,26.5 C 35.8826,26.3893 35.3826,26.056 35,25.5C 34.3333,26.8333 33.6667,28.1667 33,29.5C 32.5357,28.9056 32.369,28.2389 32.5,27.5C 33.038,25.8828 33.3713,24.2161 33.5,22.5C 34.3382,22.1583 34.6716,21.4916 34.5,20.5C 35.3635,19.537 36.0302,19.537 36.5,20.5C 35.3775,22.4816 35.3775,24.4816 36.5,26.5 Z"/></g>
<g><path style="opacity:1" fill="#ba75b3" d="M 19.5,21.5 C 19.7769,23.7281 20.7769,25.3947 22.5,26.5C 23.3136,31.1191 23.6469,35.7858 23.5,40.5C 20.7923,34.7212 18.459,28.7212 16.5,22.5C 17.391,21.8902 18.391,21.5569 19.5,21.5 Z"/></g>
<g><path style="opacity:1" fill="#e5b1db" d="M 10.5,17.5 C 12.5644,22.0265 14.231,26.6932 15.5,31.5C 13.2256,27.228 10.5589,23.228 7.5,19.5C 8.29049,18.5987 9.29049,17.9321 10.5,17.5 Z"/></g>
<g><path style="opacity:1" fill="#d9a6ce" d="M 26.5,25.5 C 27.2679,26.2625 27.7679,27.2625 28,28.5C 28.69,27.2617 29.19,27.2617 29.5,28.5C 29.5,29.8333 30.1667,30.5 31.5,30.5C 31.0113,31.9952 30.3446,33.3285 29.5,34.5C 28.7321,35.2625 28.2321,36.2625 28,37.5C 27.8091,35.2922 27.3091,33.2922 26.5,31.5C 26.5,29.5 26.5,27.5 26.5,25.5 Z"/></g>
<g><path style="opacity:1" fill="#784a74" d="M 16.5,22.5 C 18.459,28.7212 20.7923,34.7212 23.5,40.5C 23.6741,42.861 24.0074,45.1944 24.5,47.5C 24.5,47.8333 24.5,48.1667 24.5,48.5C 24.1667,48.5 23.8333,48.5 23.5,48.5C 23.5674,47.0413 23.2341,45.7079 22.5,44.5C 20.1176,37.4002 17.451,30.4002 14.5,23.5C 15.1667,23.1667 15.8333,22.8333 16.5,22.5 Z"/></g>
<g><path style="opacity:1" fill="#7d4f78" d="M 36.5,26.5 C 35.8333,28.5 35.1667,30.5 34.5,32.5C 33.8333,31.8333 33.1667,31.1667 32.5,30.5C 32.1667,30.5 31.8333,30.5 31.5,30.5C 31.2627,29.209 31.596,28.209 32.5,27.5C 32.369,28.2389 32.5357,28.9056 33,29.5C 33.6667,28.1667 34.3333,26.8333 35,25.5C 35.3826,26.056 35.8826,26.3893 36.5,26.5 Z"/></g>
<g><path style="opacity:0.475" fill="#120f11" d="M 11.5,30.5 C 13.2503,31.6594 14.2503,33.326 14.5,35.5C 12.7497,34.3406 11.7497,32.674 11.5,30.5 Z"/></g>
<g><path style="opacity:1" fill="#b890af" d="M 26.5,25.5 C 26.5,27.5 26.5,29.5 26.5,31.5C 26.6747,33.6208 26.3414,35.6208 25.5,37.5C 24.5269,35.0521 24.1936,32.3854 24.5,29.5C 25.1667,28.1667 25.8333,26.8333 26.5,25.5 Z"/></g>
<g><path style="opacity:1" fill="#543b50" d="M 31.5,30.5 C 31.8333,30.5 32.1667,30.5 32.5,30.5C 31.3726,34.8035 30.3726,39.1369 29.5,43.5C 28.968,46.4596 28.3013,46.7929 27.5,44.5C 28.3739,41.2107 29.0405,37.8774 29.5,34.5C 30.3446,33.3285 31.0113,31.9952 31.5,30.5 Z"/></g>
<g><path style="opacity:1" fill="#684264" d="M 32.5,30.5 C 33.1667,31.1667 33.8333,31.8333 34.5,32.5C 35.9621,33.4709 37.2954,33.1376 38.5,31.5C 37.6167,34.7043 35.9501,37.3709 33.5,39.5C 32.0937,39.9731 31.427,40.9731 31.5,42.5C 30.8333,42.8333 30.1667,43.1667 29.5,43.5C 30.3726,39.1369 31.3726,34.8035 32.5,30.5 Z"/></g>
<g><path style="opacity:1" fill="#4e364a" d="M 22.5,20.5 C 23.1667,23.1667 23.8333,25.8333 24.5,28.5C 24.5,28.8333 24.5,29.1667 24.5,29.5C 24.1936,32.3854 24.5269,35.0521 25.5,37.5C 25.8128,41.0419 25.4794,44.3752 24.5,47.5C 24.0074,45.1944 23.6741,42.861 23.5,40.5C 23.6469,35.7858 23.3136,31.1191 22.5,26.5C 22.5,25.1667 22.5,23.8333 22.5,22.5C 22.5,21.8333 22.5,21.1667 22.5,20.5 Z"/></g>
<g><path style="opacity:1" fill="#d1a4c8" d="M 15.5,31.5 C 17.8701,35.5861 19.8701,39.9194 21.5,44.5C 19.2651,41.7089 17.2651,38.7089 15.5,35.5C 15.5,34.1667 15.5,32.8333 15.5,31.5 Z"/></g>
<g><path style="opacity:1" fill="#dcaad1" d="M 26.5,31.5 C 27.3091,33.2922 27.8091,35.2922 28,37.5C 28.2321,36.2625 28.7321,35.2625 29.5,34.5C 29.0405,37.8774 28.3739,41.2107 27.5,44.5C 26.71,45.6085 26.21,46.9419 26,48.5C 25.31,49.7383 24.81,49.7383 24.5,48.5C 24.5,48.1667 24.5,47.8333 24.5,47.5C 25.4794,44.3752 25.8128,41.0419 25.5,37.5C 26.3414,35.6208 26.6747,33.6208 26.5,31.5 Z"/></g>
<g><path style="opacity:0.196" fill="#130e12" d="M 33.5,39.5 C 33.573,41.0269 32.9063,42.0269 31.5,42.5C 31.427,40.9731 32.0937,39.9731 33.5,39.5 Z"/></g>
<g><path style="opacity:1" fill="#362a33" d="M 14.5,35.5 C 14.8333,35.5 15.1667,35.5 15.5,35.5C 17.2651,38.7089 19.2651,41.7089 21.5,44.5C 21.8333,44.5 22.1667,44.5 22.5,44.5C 23.2341,45.7079 23.5674,47.0413 23.5,48.5C 23.1667,48.5 22.8333,48.5 22.5,48.5C 19.0843,44.6767 16.4176,40.3434 14.5,35.5 Z"/></g>
<g><path style="opacity:0.403" fill="#181318" d="M 31.5,42.5 C 30.4929,47.0144 27.8262,49.5144 23.5,50C 22.944,49.6174 22.6107,49.1174 22.5,48.5C 22.8333,48.5 23.1667,48.5 23.5,48.5C 23.8333,48.5 24.1667,48.5 24.5,48.5C 24.81,49.7383 25.31,49.7383 26,48.5C 26.21,46.9419 26.71,45.6085 27.5,44.5C 28.3013,46.7929 28.968,46.4596 29.5,43.5C 30.1667,43.1667 30.8333,42.8333 31.5,42.5 Z"/></g>
</svg>
